<svg width="33" height="37" viewBox="0 0 33 37" fill="none" xmlns="http://www.w3.org/2000/svg">
<path d="M21.5272 26.7391V28.4348C21.5272 31.2443 19.2278 33.5217 16.3912 33.5217C13.5546 33.5217 11.2553 31.2443 11.2553 28.4348V26.7391M21.5272 26.7391H11.2553M21.5272 26.7391H27.6741C28.3289 26.7391 28.658 26.7391 28.9231 26.6506C29.4297 26.4814 29.8261 26.0873 29.9969 25.5857C30.0866 25.3221 30.0866 24.9952 30.0866 24.3413C30.0866 24.0553 30.0863 23.9123 30.0637 23.7758C30.021 23.5181 29.92 23.2737 29.7663 23.0616C29.685 22.9495 29.5818 22.8473 29.378 22.6455L28.7112 21.985C28.496 21.7719 28.3751 21.4828 28.3751 21.1815V14.8696C28.3751 8.31417 23.0098 2.99998 16.3912 3C9.77269 3.00002 4.4073 8.31419 4.4073 14.8696V21.1815C4.4073 21.4829 4.28616 21.7719 4.07101 21.985L3.40418 22.6455C3.19994 22.8478 3.0977 22.9493 3.01631 23.0616C2.86251 23.2739 2.76062 23.5181 2.71791 23.7758C2.69531 23.9123 2.69531 24.0553 2.69531 24.3415C2.69531 24.9952 2.69531 25.3219 2.78511 25.5856C2.95596 26.0873 3.35409 26.4814 3.86059 26.6506C4.12578 26.7391 4.45354 26.7391 5.10846 26.7391H11.2553" stroke="#0F1126" stroke-width="5" stroke-linecap="round" stroke-linejoin="round"/>
</svg>
